<?xml version="1.0" standalone="no"?>
<!DOCTYPE svg PUBLIC "-//W3C//DTD SVG 20010904//EN"
 "http://www.w3.org/TR/2001/REC-SVG-20010904/DTD/svg10.dtd">
<svg version="1.0" xmlns="http://www.w3.org/2000/svg"
 width="300.000000pt" height="300.000000pt" viewBox="0 0 300.000000 300.000000"
 preserveAspectRatio="xMidYMid meet">
<metadata>
Created by potrace 1.11, written by Peter Selinger 2001-2013
</metadata>
<g transform="translate(0.000000,300.000000) scale(0.100000,-0.100000)"
fill="#000000" stroke="none">
<path d="M1395 2909 c-338 -25 -653 -169 -894 -410 -552 -552 -552 -1446 0
-1998 552 -552 1446 -552 1998 0 552 552 552 1446 0 1998 -234 233 -558 386
-867 407 -42 2 -90 6 -107 7 -16 2 -75 0 -130 -4z m649 -399 c80 -30 167 -113
207 -198 81 -168 33 -377 -113 -494 -23 -19 -357 -216 -741 -438 -777 -448
-751 -436 -809 -371 -26 30 -30 39 -25 78 3 32 12 49 32 66 16 12 335 200 711
417 375 217 695 406 710 420 63 58 81 159 43 238 -53 108 -197 132 -280 46
-26 -27 -33 -43 -37 -87 -4 -56 3 -76 53 -146 34 -47 33 -91 -4 -130 -54 -57
-140 -35 -198 51 -53 76 -66 127 -61 225 6 105 27 157 91 228 102 115 268 152
421 95z m212 -917 c68 -23 145 -102 169 -172 40 -122 0 -267 -95 -339 -65 -49
-1046 -612 -1078 -618 -20 -4 -34 1 -55 20 -36 33 -36 74 1 108 15 14 236 146
492 293 594 342 564 323 585 379 23 60 14 109 -29 152 -40 40 -90 51 -139 31
-73 -31 -91 -106 -42 -177 49 -70 29 -140 -41 -140 -99 0 -169 159 -130 294
21 71 89 145 157 169 59 21 144 21 205 0z"/>
</g>
</svg>
